<?xml version="1.0" encoding="UTF-8"?>
<!DOCTYPE svg PUBLIC "-//W3C//DTD SVG 1.1//EN" "http://www.w3.org/Graphics/SVG/1.1/DTD/svg11.dtd">
<!-- Creator: CorelDRAW -->
<svg xmlns="http://www.w3.org/2000/svg" xml:space="preserve" width="512px" height="512px" version="1.1" style="shape-rendering:geometricPrecision; text-rendering:geometricPrecision; image-rendering:optimizeQuality; fill-rule:evenodd; clip-rule:evenodd"
viewBox="0 0 512 512"
 xmlns:xlink="http://www.w3.org/1999/xlink">
 <defs>
  <style type="text/css">
   <![CDATA[
    .fil0 {fill:black}
   ]]>
  </style>
 </defs>
 <g id="Layer_x0020_1">
  <metadata id="CorelCorpID_0Corel-Layer"/>
  <path class="fil0" d="M426 422l0 -344 7 0 0 0 4 0 20 0 0 344 -22 0 -2 0 0 0 -7 0zm45 -344l20 0 5 0 0 0 7 0 0 344 -7 0 0 0 -7 0 -18 0 0 -344z"/>
  <path class="fil0" d="M465 512c-3,0 -5,-2 -6,-4l-32 -62c-1,-2 -1,-5 0,-7 1,-2 3,-3 6,-3l63 0c2,0 5,1 6,3 1,2 1,5 0,7l-31 62c-1,2 -3,4 -6,4 0,0 0,0 0,0z"/>
  <path class="fil0" d="M496 64l-63 0c-4,0 -7,-3 -7,-7l0 -50c0,-4 3,-7 7,-7l63 0c4,0 7,3 7,7l0 50c0,4 -3,7 -7,7z"/>
  <path class="fil0" d="M389 512l-373 0c-4,0 -7,-3 -7,-7l0 -394 7 0 0 0 8 0 67 0c12,0 21,-9 21,-21l0 -76 0 -7 0 0 0 -7 277 0c4,0 7,3 7,7l0 498c0,4 -3,7 -7,7zm-235 -74l-87 0c-4,0 -7,-3 -7,-7 0,-4 3,-7 7,-7l87 0c4,0 7,3 7,7 0,4 -3,7 -7,7zm36 -38l-126 0c-4,0 -7,-3 -7,-7 0,-4 3,-7 7,-7l126 0c4,0 7,3 7,7 0,4 -3,7 -7,7zm2 -38l-125 0c-4,0 -7,-3 -7,-7 0,-4 3,-7 7,-7l125 0c4,0 7,3 7,7 0,4 -3,7 -7,7zm147 -37l-272 0c-4,0 -7,-3 -7,-7 0,-4 3,-7 7,-7l272 0c4,0 7,3 7,7 0,4 -3,7 -7,7zm0 -38l-272 0c-4,0 -7,-3 -7,-7 0,-4 3,-7 7,-7l272 0c4,0 7,3 7,7 0,4 -3,7 -7,7zm0 -38l-272 0c-4,0 -7,-3 -7,-7 0,-4 3,-7 7,-7l272 0c4,0 7,3 7,7 0,4 -3,7 -7,7zm-11 -34l-245 0c-4,0 -7,-3 -7,-7l0 -68c0,-4 3,-7 7,-7l245 0c4,0 7,3 7,7l0 68c0,4 -3,7 -7,7zm-238 -14l231 0 0 -54 -231 0 0 54z"/>
  <path class="fil0" d="M91 97l-75 0c-3,0 -5,-2 -6,-4 -2,-3 -1,-6 1,-8l75 -83c2,-2 5,-3 7,-1 3,1 5,3 5,6l0 83c0,4 -3,7 -7,7z"/>
 </g>
</svg>
